<?xml version="1.0" encoding="UTF-8"?><svg id="Ebene_1" xmlns="http://www.w3.org/2000/svg" viewBox="0 0 777.12 991.07"><path d="M281.59,683.48V.21c3.92,0,126-.21,132.29-.21,0,2.37,.02,5.02,.06,7.67,.02,83.11,.04,166.23,.01,249.34-.01,42.15-.12,84.31-.13,126.46,0,2.24,.53,4.49,.81,6.67,9.18-4.93,17.64-9.56,26.19-14.05,22.53-11.81,45.87-21.86,69.86-30.24,15.09-5.28,30.41-10.13,45.94-13.89,23.53-5.7,47.52-7.06,71.67-4.59,.48,.05,.94,.31,2.42,.81-20.72,21.52-41.09,42.68-62.02,64.41,14.47,22.88,29.89,44.88,44.81,68.1-26.51,35.43-56.01,68.24-87.77,100.44-17.71-28.78-34.88-56.69-52.37-85.11-2.05,1.73-3.42,2.69-4.57,3.88-17.08,17.66-34.06,35.41-51.23,52.99-2.93,3-3.64,6.27-3.63,10.18,.06,32.26,.03,98.61,.03,101.86-19.52,12.58-94.05,34.03-132.37,38.55Z"/><path d="M.83,989.96c-1.6-4.87-1.06-6.91,3.07-9.15,4.18-2.27,8.6-4.11,12.96-6.06,39.35-17.62,78.87-34.87,117.03-55.04,50.89-26.91,100.13-56.37,145.25-92.33,14.05-11.2,27.33-23.18,37.4-38.28,4.27-6.41,8.14-13.01,9.87-20.64,1.02-4.48,1.37-8.82-2.44-12.46-5.27-2.66-11.02-3.18-16.86-2.88-11.75,.6-23.49,1.53-35.25,1.99-17.74,.69-35.51,.76-53.13-1.79-33.72-4.88-65.7-14.64-92.27-36.97-28.92-24.3-40.14-55.98-35.58-93.2,3.95-32.23,16.71-61.33,33.48-88.75,28.53-46.64,65.5-85.83,107.49-120.48,8.81-7.27,17.93-14.17,26.94-21.21,1.15-.9,2.49-1.57,4.42-2.77v80.11c-5,4.37-10.16,8.8-15.25,13.33-29.61,26.35-55.37,56.01-76.51,89.6-9.51,15.1-17.01,31.11-21.01,48.56-2.62,11.42-3.32,22.87,.93,34.24,3.62,9.69,10.12,16.88,18.38,22.67,11.31,7.94,24.04,12.84,37.22,16.5,30.04,8.36,60.66,8.91,91.35,5.28,18.95-2.24,37.56-6.52,55.85-12.16,24.11-7.43,47.98-15.47,71.28-25.16,27.27-11.34,51.44-27.39,72.4-48.11,41.76-41.26,82.75-83.26,119.07-129.52,20.77-26.46,39.87-54.07,54.77-84.37,6.95-14.13,12.41-28.77,14.76-44.45,1.92-12.84-2.06-23.2-12.83-30.69-9.93-6.91-20.99-11.16-32.72-13.92-21.45-5.04-43.05-4.29-64.6-1.38-24.92,3.36-49.12,9.93-72.48,19.09-21.4,8.39-42.4,17.79-63.58,26.71-1.82,.77-3.73,1.33-6.56,2.33-.82-3.32-2.04-5.99-2.05-8.67-.05-19.28,.13-38.56,.27-57.85,.01-1.33,.35-2.66,.6-4.4,6.2-2.79,12.37-5.61,18.58-8.35,22.04-9.71,44.77-17.5,68.13-23.21,13.71-3.35,27.68-5.71,41.6-8.12,9.56-1.66,19.23-2.62,28.85-3.91,18.62-2.51,37.08-1.04,55.53,1.89,23.76,3.77,45.77,11.87,65.54,25.76,16.62,11.68,29.29,26.47,35.92,45.94,5.22,15.33,5.83,31.05,3.78,46.98-4.25,32.97-17.69,62.42-34.84,90.4-27.76,45.28-60.63,86.57-97.95,124.32-44.5,45.02-90.34,88.66-136.59,131.88-27.67,25.86-54.86,52.22-82.34,78.28-34.14,32.39-71.22,60.99-110.95,86.19-46.33,29.39-94.85,54.46-145.91,74.62-27.91,11.02-56.33,20.51-85.16,28.75-14.56,4.16-29.33,7.64-44.05,11.22-3.94,.96-8.06,1.17-11.82-.36Z"/><path d="M776.37,708.01h-160.59c-12.75-20.78-25.65-41.78-38.8-63.21,31.61-32.26,64.84-62.33,94.01-97.81,35.73,53.77,70.93,106.75,106.14,159.73-.25,.43-.5,.86-.75,1.28Z"/><path d="M568.19,228.87c1.43-1.8,2.26-3,3.24-4.05,6.73-7.25,13.56-14.39,20.19-21.73,2.25-2.49,4.72-3.56,8.04-3.55,49.63,.05,99.26,.03,148.88,.06,1.45,0,3.38-.06,4.93-.06,.06,.48,0,1.24,0,1.69-15.07,15.58-30.15,31.17-45.51,47.06-44.31-21.96-90.66-27.63-139.76-19.41Z"/></svg>