<?xml version="1.0" encoding="UTF-8"?><svg id="Ebene_1" xmlns="http://www.w3.org/2000/svg" viewBox="0 0 1906.37 1017.36"><path d="M582.04,560.04c20.68-25.82,54.36-73.39,70.89-111.7,8.96-20.75,12.3-44.02,13.43-66.57,1.17-23.37-7.03-46.66-20.91-66.13-4.56-6.4-9.43-12.56-14.17-18.83-1.55-2.05-3.14-4.08-5.08-6.59,5.55-5.8,10.8-11.27,16.02-16.76,1.48-1.55,3.13-2.99,4.31-4.75,3.85-5.75,1.52-12.22-5.19-13.98-2.94-.77-6.12-.84-9.2-.85-33.83-.15-67.67-.03-101.5-.39-36.82-.39-72.33,7.53-107.7,16.34-19.67,4.9-38.88,11.26-57.24,20.01-1.44,.69-3.06,1.02-5.4,1.78v-23.81c2.28-1.19,4.89-2.78,7.66-3.98,35.5-15.38,71.91-28.12,110.06-34.93,60.35-10.76,119.96-9.61,177.82,13.5,34.81,13.9,64.55,41.11,91.08,67.42,35.69,35.39,60.77,71.52,85.05,115.23,29.88,53.79,54.72,109.63,71.48,168.71,.32,1.13,.56,2.29,.81,3.3-9.53,11.05-45.89,14.96-62.3,12.16,1.72-3.87,3.68-8.5,5.57-12.28,6.14-12.26,6.57-24.42,.84-37.1-8.33-18.44-15.9-37.23-24.2-55.68-3.11-6.92-7.03-13.54-11.12-19.95-14.36-22.45-36.39-31.43-62.25-25.19-20.87,5.03-39.34,15.36-54.19,30.47-22.69,23.09-43.08,51.4-64.33,75.83-9.49,10.91-17.25,19.97-26.51,30.77"/><path d="M511.77,699.03c-19.77,19.05-35.39,32.13-69.96,72.9-28.35,39.54-34.22,58.56-28.35,83.74,10.07,27.98,31.05,44.57,65.74,41.96,32.82-3.36,48.58-15.37,68.91-32.83,33.06-28.4,60.87-58.7,94.61-86.29,23.23-18.99,47.31-36.95,71.08-55.28,10.19-7.85,20.57-15.46,30.88-23.15,2.26-1.69,4.6-3.27,5.93-4.21,15.34,7.41,36.04,14.03,57.79,17.23-.74,.56-89.5,61.82-127.85,98.48-29.1,27.82-57.92,55.94-87.45,83.3-20.03,18.56-42.72,33.43-68.04,44.08-48.38,20.34-104.72,4.78-137.2-28.92-17.69-18.35-25.51-40.24-24.13-65.69,1.53-28.28,9.39-47.96,22.51-72.43,17.16-32.02,49.6-61.13,74.97-87.35,4.07-4.2,12.91-13.07,26.36-26.54"/><path d="M350.24,635.03c-23.26,10.62-72.44,27.3-110.99,28.84,0-6.41-.44-561.87-.44-569.87h111.34c0,3.53,.14,201.76,.14,298.27,0,8.33-.03,16.66,.04,24.98,.02,2.32,.05,5.42,.05,10.04,3.01-2.94,5.33-5.45,6.97-7.2,10.94-11.63,21.74-23.39,32.79-34.91,2.58-2.69,6.35-3.99,9.71-5.48,25.97-11.5,53.91-22.91,81.95-28.04,20.03-3.66,38.17-4.21,58.33-.42,3.13,.59,6.11,1.95,10.67,3.45-23.69,24.63-46.37,48.2-69.49,72.23,12.08,18.34,22.96,34.85,35.11,53.29-22.37,29.64-47.7,56.36-74.29,83.75-14.8-22.19-26.8-44.45-41.63-66.96-1.94,1.79-3.75,3.76-5.3,5.36-13.61,14.02-27.06,28.19-40.79,42.09-3.39,3.43-4.14,7.2-4.13,11.64,.06,22.88,.04,45.75,0,68.63,0,3.07-.04,5.89-.04,10.3Z"/><path d="M360.07,386.26v-60.67c7.73-3.62,15.54-7.59,23.59-11.01,40.27-17.12,82.33-27.34,125.97-29.62,31.99-1.67,62.57,4.37,89.97,22.5,29.2,19.33,40.03,46.57,35.72,80.63-3.33,26.28-13.67,50-27.15,72.42-24.48,36.51-58.08,80.06-93.18,113.99-62.87,60.77-123.29,121.13-186.71,181.34-31.07,29.49-66.06,53.89-102.72,75.89-46.35,27.82-95.19,50.31-146.63,66.88-22.19,7.14-44.87,12.8-67.39,18.87-3.48,.94-7.33,.53-10.69,.72-2.43-5.74,.9-7.54,4.17-9.11,7.31-3.49,14.63-6.96,22.07-10.15,39.67-17.01,78.47-35.77,116.03-57.03,33.23-18.81,65.22-39.47,95-63.44,12.7-10.22,24.26-21.45,32.79-35.54,4.15-6.86,9.02-13.52,6.67-22.43-1.19-5.45-10.77-4.01-16.47-3.94-6.9,.09-13.81,.46-20.7,.99-30.41,2.36-60.55,1.35-89.74-8.45-19.13-6.42-37.09-15.21-51.16-30.28-18.89-20.23-26.54-44.28-22.97-71.62,4.23-32.4,18.11-61.02,36.2-87.72,30.31-44.74,69.1-81.1,112.65-112.65,.75-.55,1.62-.94,2.46-1.42,0,10.95,1.07,45.07,1.07,65.85-6.85,5.98-14.1,12.12-21.15,18.48-26.72,24.1-49.83,51.18-67.85,82.45-7.09,12.3-11.81,25.42-14.08,39.47-2.98,18.47,3.41,33.48,19.4,43.37,16.93,10.48,35.66,15.54,55.34,17.69,40.22,4.4,78.71-3.23,116.52-16.17,23.23-7.95,46.44-15.86,67.78-28.33,15.35-8.96,28.84-20.28,41.32-32.8,29.29-29.36,59.65-59.05,86.2-90.97,19.54-23.5,37.33-48.22,52.39-74.85,7.19-12.71,11.29-26.1,15.11-40.2,.5-1.84,.92-3.7,1.26-5.57,2.8-15.72-2.01-25.39-16.22-32.93-14.64-7.76-30.37-11-46.8-11.35-26.79-.57-52.77,4.52-77.75,13.48-23.5,8.43-46.33,18.72-69.44,28.24-3.25,1.34-6.4,2.93-10.89,5Z"/><path d="M1278.21,383.61c8.3,.82,15.83,1.24,23.27,2.36,19.88,2.98,30.4,4.7,48.78,12.88,1.73,.77,3.52,1.48,5.34,2,6.94,1.99,13.15-.33,16.71-6.13,3.74-6.09,3.4-13.39-2.07-18.28-6.55-5.85-13.61-11.2-20.88-16.13-22.01-14.93-38.04-19.56-63.81-25.26-1.62-.36-6.02-1.48-7.36-1.8v-68.3c12.04,0,100.86-.19,109.6-.19v61.81c1.41-2.36,4.42-6.02,6.09-8.18,3.49-4.52,6.59-9.34,10.13-13.82,24.29-30.77,55.92-48.18,95-51.95,32.77-3.17,64.22,.95,93.3,17.37,33.71,19.03,54.55,48.3,66.12,84.6,8.74,27.42,9.01,55.73,7.97,86.16-2.98-3.39-4.96-5.51-6.79-7.76-10.57-13.04-22.65-24.39-36.54-33.89-24-16.42-50.41-24.26-79.49-23.03-1.66,.07-3.32,0-5.25,0-.93-.85-2.07-1.7-3-2.75-16.17-18.14-37.04-24.21-60.48-23.42-43.81,1.48-74.39,33-82.31,76.57-1.77,9.77-2.09,19.9-2.12,29.87-.17,68.61-.33,137.23,.12,205.84,.09,12.87-6.81,21.35-14.02,30.14-1.25,1.52-4.23,2.25-6.42,2.26-29.06,.14-89.81,.06-91.92,.05,0-102.89,.03-206.59,.03-311.01Z"/><path d="M1399.56,488.79c26.99,32.06,44.42,67.77,48.38,109.19,3.52,36.87-2.73,71.71-22.96,103.31-19.87,31.03-47.82,52.66-80.62,68.51-35.81,17.3-73.71,21.69-112.86,18.01-9.96-.94-19.87-2.33-29.82-3.43-2.84-.31-5.71-.5-8.56-.46-9.3,.14-15.03,4.17-18,12.46-2.9,8.1-1.19,15.84,5.35,21.39,3.42,2.9,7.38,5.22,11.29,7.48,27.36,15.84,57.11,21.98,88.05,27.42,42.39,7.44,84.81,8.67,127.13-.39,23.45-5.02,46.07-12.48,65.77-26.63,8.66-6.22,14.3-13.01,21.58-20.75,20.05-21.33,26.97-44.29,23.15-73.03-1.13-8.46-1.81-16.8-3.62-25.16-1.23-5.69-4.1-16.57,1.88-18.2,3.95-.46,7.81,9.44,9,12.23,15.54,36.36,17.83,72.46-3.02,107.69-10.22,17.28-24.5,30.95-40.85,42.44-26.44,18.59-56.23,28.59-87.72,34.49-48.74,9.13-97.33,7.21-145.48-3.11-64.44-13.8-117.7-45.89-155.86-100.56-20.15-28.86-33.3-60.94-40.25-95.47-7.4-36.71-13.95-73.6-12.07-111.24,2.78-55.5,22.91-103.05,67.75-137.72,30.92-23.91,66.3-37.33,105.65-38.58,16.7-.53,33.26,1.85,49.51,5.92,1.59,.4,3.07,1.18,5.06,1.97v48.26c-6.16-1.15-11.69-2.17-17.22-3.21-41.12-7.74-79.12-.05-113.65,23.55-24.88,17.01-39.77,41.03-47.96,69.76-10.14,35.57-9.39,71.09-.19,106.56,2.24,8.63,3.83,17.1,3.42,25.99-.22,4.75-.19,9.54,.03,14.29,.4,8.33,3.57,11.49,11.95,12.02,3.55,.22,7.13,.04,9.76,.04,9.34,7.45,17.65,15.02,26.86,21.25,22.6,15.28,48.45,21.91,74.96,26.1,31.12,4.91,62.14,5.6,92.72-3.86,29.38-9.09,54.89-24.48,74.66-48.1,28.06-33.53,35.68-71.78,23.74-113.87-.23-.63-2.27-7.35-2.52-8.08-4.29-9.74-4.9-20.92-4.52-35.08,.41-15.48,.09-30.97,.09-46.46v-6.93Z"/><path d="M1256.37,2.27c8.64-4.49,14.55-2.38,5.37,6.86-1.83,2.27-3.31,4.36-5.04,6.22-28.41,30.54-56.45,61.37-81.95,94.45-39.36,51.05-71.32,106.33-96.29,165.76-8.17,19.45-5.66,39.17,12.98,53.11v50.52c-1.55,.44-2.86,1-4.22,1.18-28.63,3.77-46.08,20.62-53.5,47.64-3.76,13.71-5.52,28.03-7.38,42.18-7.13,54.16-11.05,108.56-9.08,163.19,1.05,29.25,3.09,58.51,5.73,87.66,3.07,33.91,6.74,67.78,11.16,101.54,5.53,42.26,12.56,83.88,21.95,125.48,7.23,32.05,13.17,55.36,13.8,59.23,2.28,12.28-3.9,13.4-9.43,2.91-1.53-2.78-27.47-57.88-41.92-108.04-13.53-46.97-24.2-94.62-31.56-142.9-5.1-33.41-8.33-67.11-11.87-100.74-3.79-36.08-3.88-72.33-2.66-108.53,1.21-35.73,4.83-71.28,10.11-106.66,2.07-13.86,4.67-27.78,5.1-41.73,.64-20.84-8.66-37.74-24.86-50.68-4.63-3.7-9.76-6.85-14.9-9.82-20.41-11.78-37.82-27.29-54.6-43.59-1.49-1.45-2.9-3.31-3.55-5.24-1.71-5.08,2.73-9.87,7.89-8.42,2.67,.75,5.13,2.45,7.54,3.94,18.24,11.24,37.5,19.96,58.99,22.34,8.22,.91,16.75,1.24,24.91,.14,15.54-2.1,27.31-10.82,35.37-24.17,3.68-6.1,6.7-12.62,9.67-19.11,29.33-64.2,66.59-123.12,115.58-174.3,19.49-20.36,40.74-38.74,62.55-56.5,11.82-9.63,23.63-19.28,35.62-28.7,3.07-1.91,5.2-3.56,8.47-5.23Z"/><path d="M1411.76,431c3.61-4.29,8.47-3.09,11.44-1.31,4.08,2.45,8.18,4.89,12.16,7.51,12.56,8.27,27.45,7.59,35.71-8.17,14.87-28.38,40.16-41.12,71-43.46,41.11-3.12,74.02,14.12,101.56,43.21,22.14,23.39,39.23,50.25,53.3,79.13,18.45,37.87,30.58,77.98,41.98,118.35,9.7,34.37,18.92,68.89,29.43,103.01,9.86,32.02,23.98,62.17,44.03,89.33,22.6,30.63,51.14,54.35,83.88,73.33,2.47,1.43,5.04,2.72,7.42,4.3,2.88,1.92,2.82,2.02,2.64,7.29-2.33,2.54-5.03,1.9-7.82,.84-63.32-23.94-116.31-60.88-151.16-120.49-11.1-18.99-19.57-39.2-26.21-60.15-11.45-36.09-22.51-72.31-34.28-108.29-8.73-26.7-17.46-53.43-29.79-78.8-12.14-24.98-26.53-48.48-44.69-69.54-9.9-11.48-21.4-21.06-35.58-26.96-14.15-5.88-26.98-6.9-41.75-2.94-9.47,2.54-16.55,9.89-20.72,18.69-3.78,7.97-5.04,22.52-.91,45.48,3.37,16.32,10.78,30.94,20.13,44.66,13.71,20.12,10.81,12.9,11.05,36.19,.17,16.68,.05,33.36,.02,50.04,0,2.26,.03,5.3,.03,8.95-2.02-2.33-24.22-35.29-25.32-36.75-27.94-41.69-34.45-52.88-62.53-95.14-13.94-22.1-28.21-43.5-42.77-66.02-2.19-3.68-5.35-8.95-2.24-12.3Z"/><path d="M653.02,577.44c24.13,59.21,66.53,98.89,127.44,118.45,28.68,9.21,58.26,11.46,88.27,10.63,23.82-.67,46.91-4.83,69.27-12.78,10-3.56,20.37-8.18,29.52-12.23-5.04-38.89-6.29-75.94-6.07-114.94-4.98,.12-14.28,.28-21.35,.26-.85,1.27-5.13,11.36-5.82,12.58-11.54,20.63-29.16,33.33-52.11,37.66-11.58,2.18-23.71,2.93-35.49,2.34-26.13-1.3-49.29-10.52-67.56-29.92-19.75-20.97-28.95-46.63-32.28-74.75-.13-1.08-.29-2.36-.16-4.45,22.92,0,47.85,.15,70.53,.15,2.41,0-8.81-16.94-13.85-24.01-12.41-17.39-29.47-23.33-50.16-18.59-18.81,4.31-32,11.12-45.82,24.13-13.5,12.72-50.52,62.09-58.52,71.76"/><path d="M1213.25,458.62v235.48c-37.35,0-74.79,0-112.27,0,0-3.07,.17-102.87,0-150.28-.03-9.02,3.33-16.75,7.5-24.24,15.15-27.16,38.62-44.24,67.51-54.14,9.17-3.14,14.07-4.6,23.49-5.91,8.8-1.22,10.12-.91,13.76-.91Z"/><path d="M1666.68,694.05h-112.24v-249.29c4.34,0,8.53,.61,12.26,1.65,17.27,4.79,30.06,16.17,41.13,29.5,25.83,31.13,44.19,66.45,57.29,104.6,.84,2.44,1.5,5.09,1.51,7.64,.09,34.05,.05,104.14,.05,105.9Z"/><path d="M1212.67,389.5c-40.64,1.66-76.96,15.75-109.87,39.27,0-6.15-.5-155.27-.5-164.75h109.86c0,7.78,.51,112.98,.51,125.48Z"/><path d="M1213.37,94.32v99.7h-84.05c20.46-36.09,44.14-68.92,69.52-99.7h14.53Z"/><path d="M1363.46,389.67c-1.05,1.55-3.22,3.78-9.98,.79-39.65-17.72-72.18-18.41-115.05-16.2-4.49,.23-8.98,.46-14.26,.73-.36-12.53-.36-24.84-.36-37.35,2.18-.29,5.38-.04,6.96,.05,38.83,2.25,70.9,7.06,105.52,25.97,10.37,5.67,14.89,9.9,24.43,16.97,5.05,3.5,3.77,6.72,2.75,9.03Z"/><path d="M940.93,864.8c-4.23-1.27-5.5-4.53-6.36-8.53-5.55-25.82-11.12-51.64-17.01-77.39-2.12-9.26-4.47-18.56-7.88-27.4-4.81-12.46-14.75-24.5-25.46-32.54-1.7-1.28-3.49-2.48-3.54-2.93,17.04-1.27,31.93-3.51,48.72-8.92,1.59,8.21,3.36,16.04,4.6,23.96,6.38,40.48,10.44,81.2,12.02,122.16,.26,6.77,.12,7.06-5.1,11.6Z"/><path d="M493.77,274.88c3.19-3.66,6.38-7.32,9.58-10.99h135.17c-11.93,12.42-22.72,23.65-34.03,35.43-33.82-21.32-71.22-25.97-110.21-22.99-.17-.49-.34-.97-.51-1.46Z"/><path d="M1588.86,703.48h37.79c13.91,27.82,27.75,56.47,38.92,86.03,3.72,9.78,.04,12.6-6.4,6.19-2.47-2.26-5.03-5.46-6.67-7.6-16.92-22.07-33.59-42.89-50.36-65.07-4.39-5.8-8.44-12.72-13.28-19.55Z"/><path d="M1042,510.34c-2.56,0-8.37-.05-11.1-.05,.23-2.15,.59-4.13,.85-6.1,3.06-23.3,6.04-46.6,9.48-69.84,.72-4.89,2.58-11.6,4.13-14.26,.65-1.31,1.93-3.83,2.4-2.94,3.31,4.2,8.3,39.59,9.28,56.8,.25,3.36,.08,4.51-2.25,10.03-3.86,8.66-8.34,17.19-12.79,26.36Z"/><path d="M1135.17,94.16c-11.24,13.45-21.81,26.09-32.47,38.84,0-9.55-.28-31.19-.28-38.84h32.75Z"/><path d="M184.78,393.79c-7.71,4.23-11.47,.56-4.47-7.99,9.25-10.51,37.21-28.57,48.39-38.03v17.96c-7.97,4.76-26.33,17.41-35.81,23.08-.35,.21-7.75,4.78-8.11,4.98Z"/><path d="M918.28,447.36c7.65,23.76-8.67,26.3-15.53,12.03-3.69-7.68-14.66-23.86-14.66-23.86-6.3-11.28-53.62-67.45-68.85-85.25,9.39-3.03,25.48-8.62,48.38-2.4,.52,.73,1.03,1.45,1.58,2.17,25.28,33.51,49.08,97.31,49.08,97.31Z"/><path d="M690.23,198.24c42.97,36.87,63.32,60.91,64.54,62.11,49.54-18.46,79.44-18.54,97.36-17.9,3.31-10.07,8.78-28.19,14.21-37.5,16.12-27.63,36.64-51.59,61.09-72.22,29.64-25,63.63-42.57,98.83-58.11,20.26-8.95,40.52-17.89,60.75-26.91,2.54-1.13,4.87-2.74,7.41-4.19,12.14-8.34-2.61-8.95-8.87-8.13-47.46,6.18-93.73,16.98-137.36,37.15-40.49,18.72-76.62,43.6-104.94,78.53-8.97,11.06-16.73,23.14-24.65,35.01-9.15,13.72-21.01,22.02-38.14,20.31-9.52-.95-17-6.27-25.11-11.2-28.56-17.37-78.64-45.35-116.83-60.74-36.16-14.57-45.29-7.18-20.89,7.82,34.18,21,51.76,38.09,72.59,55.97Z"/><path d="M946.69,351.11c-21.87-12.55-40.98-28.52-58.82-46.13-1.85-1.83-3.62-3.83-5.03-6-4.14-6.35-3.62-13.55,1.13-19.16,4.79-5.66,11.61-7.19,18.72-3.97,2.59,1.17,5.58,2.88,8.14,4.13,11.32,5.5,21.74,11.63,33.4,16.26,12.16,4.84,25.14,6.16,38.39,4.91-31.01-29.01-67.85-44.13-109.41-47.9,0,0-42.26-6.07-103.1,13.5-12.51,4.03-29.02,12.51-36.65,17.94,23.24,21.07,43.58,43.52,61.86,68.18,6.24-3.4,49-31.29,96.68-3.72,10.87,5.88,19.96,13.72,27.52,23.45,12.69,16.33,18.54,35.18,20.47,55.47,.12,1.28,.18,3.63,.18,5.03-4.06,0-7.2-.04-12.2-.04h-7.41c2.82,6.68,4.53,11.03,4.79,11.69l.13,.37c5.47,16.98,.29,27.69-7.26,30.77-1.49,.61-3.13,.94-4.84,.94-5.88,0-12.63-3.87-17.42-13.49-3.57-7.17-14.14-22.99-14.24-23.15l-.27-.44c-.78-1.39-2.37-3.72-4.53-6.69h-30.4l38.05,77.23h80.44c.51-3.19,.98-5.72,1.32-8.26,3.83-28.76,7.51-57.53,11.49-86.27,4.07-29.37-5.53-49.95-31.13-64.65Z"/><path d="M558.37,545.7c-25.04,30.58-52.73,53.24-79.23,80.08l42.11,67.88s115.81-.25,137.45-.25c-12.56-18.85-98.97-145.74-100.34-147.71Z"/></svg>